<svg id="Layer_1" data-name="Layer 1" xmlns="http://www.w3.org/2000/svg" xmlns:xlink="http://www.w3.org/1999/xlink" viewBox="0 0 452.78 305.84"><defs><style>.cls-1{fill:url(#linear-gradient);}.cls-2{fill:#fff;}.cls-3{fill:url(#linear-gradient-2);}.cls-4{fill:url(#linear-gradient-3);}.cls-5{fill:url(#linear-gradient-4);}.cls-6{fill:url(#linear-gradient-5);}.cls-7{fill:#5faeff;}.cls-7,.cls-8{stroke:#fff;stroke-miterlimit:10;stroke-width:2px;}.cls-8{fill:url(#linear-gradient-6);}</style><linearGradient id="linear-gradient" x1="315.14" y1="256.79" x2="137.01" y2="214.24" gradientUnits="userSpaceOnUse"><stop offset="0.02" stop-color="#5faeff"/><stop offset="0.69" stop-color="#2f3bac"/></linearGradient><linearGradient id="linear-gradient-2" x1="24.97" y1="248.72" x2="475.74" y2="248.72" gradientUnits="userSpaceOnUse"><stop offset="0.04" stop-color="#5885e2"/><stop offset="0.19" stop-color="#6cafff"/><stop offset="0.45" stop-color="#5b8be6"/><stop offset="0.9" stop-color="#6badfd"/></linearGradient><linearGradient id="linear-gradient-3" x1="400.48" y1="171.06" x2="60.19" y2="331.53" gradientUnits="userSpaceOnUse"><stop offset="0" stop-color="#3140b0"/><stop offset="0.32" stop-color="#5faeff"/><stop offset="0.98" stop-color="#2f3bac"/></linearGradient><linearGradient id="linear-gradient-4" x1="371.89" y1="163.66" x2="267.37" y2="245.28" gradientUnits="userSpaceOnUse"><stop offset="0.02" stop-color="#5faeff"/><stop offset="0.98" stop-color="#2f3bac"/></linearGradient><linearGradient id="linear-gradient-5" x1="206.34" y1="256.85" x2="92.16" y2="301.52" gradientUnits="userSpaceOnUse"><stop offset="0.02" stop-color="#5faeff"/><stop offset="0.48" stop-color="#2f3bac"/><stop offset="0.87" stop-color="#5596ee"/></linearGradient><linearGradient id="linear-gradient-6" x1="212.43" y1="152.81" x2="255.98" y2="238.22" gradientUnits="userSpaceOnUse"><stop offset="0.09" stop-color="#5faeff"/><stop offset="0.6" stop-color="#5699f0"/><stop offset="1" stop-color="#2f3bac"/></linearGradient></defs><path class="cls-1" d="M190.17,277.72c-19.5,0-32.21-3.52-34-9.42-.56-1.82-.13-4.05,1.27-6.63,8.47-15.57,48.26-38.49,85.15-49.05a240.34,240.34,0,0,1,62.4-9c19.53,0,32.26,3.5,34,9.37,3.78,12.39-38.41,40.61-80.62,53.92C236.9,273.67,211.39,277.72,190.17,277.72Z" transform="translate(-23.96 -62)"/><path class="cls-2" d="M305,202.6v2c18.78,0,31.46,3.32,33.09,8.66s-7.14,15.23-22.92,25.7c-16.14,10.72-37.47,20.8-57,27-21.41,6.75-46.8,10.78-67.93,10.78-18.75,0-31.41-3.34-33-8.71-.48-1.56-.08-3.53,1.19-5.86,3.88-7.13,15.22-16.52,31.13-25.75a245.51,245.51,0,0,1,53.42-22.82c19.64-5.62,42.86-9,62.12-9v-2m0,0a241.35,241.35,0,0,0-62.67,9.05c-44.43,12.72-91.45,42.7-87.11,56.94,2.1,6.86,16.11,10.13,35,10.13,20.2,0,46-3.76,68.53-10.88C299.59,255,344.21,226.55,340,212.68c-2.1-6.9-16.27-10.08-35-10.08Z" transform="translate(-23.96 -62)"/><path class="cls-3" d="M125,358.91c-39.36,0-88.29-7.48-97.86-43.08-5-15-1.43-31,10.55-47.62C60.33,236.83,113,204,182.25,178.11c66.31-24.79,138.62-39.58,193.43-39.58,39.36,0,88.3,7.47,97.87,43.09,5,15,1.43,31-10.56,47.61-22.61,31.38-75.3,64.23-144.55,90.11-66.29,24.78-138.59,39.57-193.38,39.57ZM356.76,145.14c-37.28,0-81.51,7.44-131.48,22.13-130.25,40-183,94.67-177.57,131.12,4,26.87,38.32,42.91,91.73,42.91,37.27,0,81.51-7.44,131.47-22.13,130.26-40,183-94.67,177.57-131.12C444.45,161.18,410.16,145.14,356.76,145.14Z" transform="translate(-23.96 -62)"/><path class="cls-2" d="M375.68,139.53c26.71,0,48.55,3.41,64.9,10.14,17.42,7.17,28.18,18,32,32.21l0,.05V182c4.87,14.6,1.36,30.3-10.42,46.65-22.51,31.22-75,63.94-144.09,89.75C251.9,343.14,179.72,357.91,125,357.91c-26.7,0-48.54-3.41-64.89-10.14-17.42-7.17-28.19-18-32-32.2l0-.06v-.06c-4.87-14.6-1.36-30.3,10.42-46.65C61,237.57,113.54,204.86,182.6,179,248.81,154.3,321,139.53,375.68,139.53M139.44,342.3c37.37,0,81.7-7.46,131.78-22.18,59-18.12,107-41,138.67-66,28.54-22.58,42.59-46.09,39.58-66.19-4.12-27.41-38.77-43.76-92.7-43.76h0c-37.38,0-81.71,7.46-131.78,22.18-59,18.12-107,41-138.68,66-28.54,22.58-42.59,46.08-39.58,66.19,4.12,27.4,38.77,43.76,92.72,43.76M375.68,137.53C234.77,137.53-1.49,233,26.2,316.08c8.32,31,47.18,43.83,98.82,43.83,140.91,0,377.18-95.51,349.49-178.55-8.33-31-47.18-43.83-98.83-43.83ZM139.44,340.3C.3,340.3,14.06,233.17,225.57,168.23c52.68-15.49,96.65-22.09,131.19-22.09,139.13,0,125.37,107.13-86.13,172.07C217.94,333.7,174,340.3,139.44,340.3Z" transform="translate(-23.96 -62)"/><path class="cls-4" d="M433.56,183.8c-9.9-30.8-121.75-28.55-208.34-.72-84.57,27.19-176,88.75-166.46,119.41S179.32,332.52,266,305C352.32,277.59,443.41,214.43,433.56,183.8ZM84,291c-8.53-29,67.13-82.88,139-107,81.35-27.31,180.07-24,188,3,6.92,23.55-56.36,61.45-89,81-32,19.15-73.22,43.22-131,47C164,316.77,91.59,316.82,84,291Z" transform="translate(-23.96 -62)"/><path class="cls-2" d="M434.65,183.5c-2.39-7.24-9.29-11.67-15.95-14.54-10.34-4.45-21.73-6.28-32.86-7.42-31.77-3.23-64.33-.28-95.73,4.9a448.2,448.2,0,0,0-103.44,29.93c-31.88,13.63-63,30.39-90.62,51.52-10.33,7.91-20.44,16.53-28.57,26.75C62.32,281.11,57,289.09,57,297.69c-.05,7.39,4.78,13,10.76,16.77,8.69,5.44,19.22,7.86,29.21,9.5A242.4,242.4,0,0,0,139,326.71a419.91,419.91,0,0,0,50.72-3.8A438.64,438.64,0,0,0,294.33,296c33-13.16,65-29.87,93.82-50.7,11.34-8.19,22.38-17.1,31.82-27.47,6.28-6.9,12.79-15.06,14.88-24.38a19.3,19.3,0,0,0-.2-10c-.43-1.38-2.61-.79-2.17.6,2.34,7.46-1.62,15.37-5.64,21.48-6.53,9.91-15.43,18.26-24.45,25.86-25.36,21.34-54.81,38.13-84.76,52.08a432.7,432.7,0,0,1-102.16,33c-32,6.07-64.95,9.43-97.49,7.49-12.14-.72-24.46-2.15-36.11-5.77-7.3-2.26-15.79-5.64-20.21-12.28-4-6.08-2.4-13.39.7-19.5,4.93-9.7,12.92-17.8,20.9-25A273.6,273.6,0,0,1,119.1,234.5a450.94,450.94,0,0,1,45-25.31,446.29,446.29,0,0,1,100.59-35.57c32.32-7.15,65.64-11.42,98.78-11,13,.15,26.11,1,38.84,3.71,8.63,1.84,18.19,4.46,25,10.42a17.11,17.11,0,0,1,5.15,7.37C432.93,185.46,435.1,184.88,434.65,183.5Z" transform="translate(-23.96 -62)"/><path class="cls-2" d="M85.08,290.7c-2.13-7.44,1.58-15.21,5.56-21.33,6.2-9.53,14.67-17.57,23.32-24.85A281.6,281.6,0,0,1,150.24,219a385.28,385.28,0,0,1,43-22.28,361.93,361.93,0,0,1,95-26.86,357.23,357.23,0,0,1,46-3.67,225.78,225.78,0,0,1,39.23,2.49c9.17,1.5,18.75,3.64,26.9,8.3,5.4,3.09,10.38,7.82,10,14.52-.21,3.78-1.9,7.37-3.85,10.54a66.12,66.12,0,0,1-9.32,11.52c-8.83,9-19,16.69-29.3,23.93C357.25,245,346.24,252,335.13,258.77c-10,6.12-20.1,12.2-30.31,18-25.32,14.44-52,26.31-80.63,32.47-24,5.16-48.83,6.09-73.31,4.82a208.24,208.24,0,0,1-34.56-4.3c-8.81-2-18.51-4.71-25.5-10.75a18,18,0,0,1-5.74-8.33,1.12,1.12,0,0,0-2.16.6c2.39,7.92,9.92,12.7,17.13,15.78,10.07,4.29,21.07,6.26,31.88,7.61a296,296,0,0,0,35.34,2.09A300.45,300.45,0,0,0,199,315.46c31.68-3.17,62-13.18,90.23-27.66,11.56-5.92,22.76-12.5,33.9-19.18,10.71-6.41,21.39-12.88,31.86-19.69a344.18,344.18,0,0,0,32.53-23.48c8.2-6.82,16.77-14.48,21.94-24,3.4-6.25,4.66-13.61.13-19.63-4.66-6.19-12.59-9.44-19.74-11.69-11-3.44-22.58-4.9-34-5.66A302.14,302.14,0,0,0,312,165a369.53,369.53,0,0,0-97.85,20.92,365,365,0,0,0-86.5,45.23c-10.82,7.74-21.31,16.2-30.27,26.07-6.18,6.8-12.46,14.84-14.52,24a20.2,20.2,0,0,0,.11,10.07A1.12,1.12,0,0,0,85.08,290.7Z" transform="translate(-23.96 -62)"/><path class="cls-5" d="M341.71,240c26.67-20.35,37.85-34.12,35-43-2.32-7.23-13.61-10.6-35.51-10.6-12.3,0-28.19,1.08-48.58,3.32-15,1.68-26.89,3.94-34.58,5.53,17.74-4.92,57.46-12.32,90.4-12.32,23.84,0,39.16,4.06,44.32,11.73C395.27,203.73,376.42,220.32,341.71,240Z" transform="translate(-23.96 -62)"/><path class="cls-2" d="M348.45,184c23.35,0,38.34,3.86,43.4,11.16,1.8,7.36-12.43,20.78-38.38,36.75,19-15.91,26.73-27.28,24.2-35.14s-14.06-11.3-36.46-11.3c-10.85,0-24.48.84-41.51,2.57,13.78-2,31.68-4,48.75-4m0-2C306,182,250.07,194.62,248,198.29c0,0,.07.05.18.05,1.91,0,18.39-4.61,44.61-7.56,18.76-2.05,35.23-3.31,48.47-3.31,44.59,0,52.56,14.29-12.07,60.57,14.69-7.78,69.44-37.61,64.55-53.73-6-9.12-23.91-12.31-45.24-12.31Z" transform="translate(-23.96 -62)"/><path class="cls-6" d="M145.91,296c-21.38,0-35.13-3.73-39.81-10.78-.5-3,.88-6.93,4.11-11.6,7.46-10.78,22.86-22.72,32.05-27.36-16,14.29-22.43,25.15-19.52,33.12,3.09,8.48,16.72,12.77,40.49,12.77h0c18.26,0,40.17-2.6,59.38-6-24.94,5.62-54,9.86-76.7,9.86Z" transform="translate(-23.96 -62)"/><path class="cls-2" d="M134.76,252c-11.3,11.5-15.55,20.63-13,27.73,3.25,8.91,17.19,13.43,41.44,13.43,5.78,0,11.93-.26,18.25-.72A286.5,286.5,0,0,1,145.91,295c-20.84,0-34.26-3.51-38.86-10.16-.34-2.7,1-6.37,4-10.65,5.39-7.79,15.3-16.41,23.72-22.2m12.39-8.64c-9.57,1.63-44.72,28.21-42,42.24,5.27,8.25,20.95,11.41,40.76,11.41,38.67,0,93.12-12,117-21.57-17.11,6.24-64.7,15.72-99.62,15.72-37.24,0-60.06-10.78-16.09-47.8Zm120.39,30c-1.38.66-3,1.34-4.68,2a32.56,32.56,0,0,0,4.68-2Z" transform="translate(-23.96 -62)"/><circle class="cls-7" cx="202.04" cy="20" r="19"/><path class="cls-8" d="M264,190.77c-.19,14.53-12.77,32.78-29.65,33.88-16.19,1-30.53-14.06-33.28-27.83-1.8-9,2-14.36,16.94-48.41,4.69-10.68,8.43-19.52,10.89-25.41,2.33,5.12,6,12.77,10.9,21.78C255.77,174,264.16,178.74,264,190.77Z" transform="translate(-23.96 -62)"/><circle class="cls-2" cx="159.04" cy="203" r="3"/><circle class="cls-2" cx="228.32" cy="187.64" r="4.49"/><circle class="cls-2" cx="249.91" cy="187.64" r="3"/><circle class="cls-2" cx="279.97" cy="157.7" r="2.06"/><circle class="cls-2" cx="387.93" cy="113.69" r="4.31"/><circle class="cls-2" cx="383.54" cy="238.5" r="4.5"/><circle class="cls-2" cx="172.62" cy="191.38" r="2.06"/><circle class="cls-2" cx="195.62" cy="110.38" r="2.06"/><circle class="cls-2" cx="435.04" cy="111" r="3"/><circle class="cls-2" cx="45.9" cy="230.36" r="4.49"/><circle class="cls-2" cx="111.04" cy="287" r="3"/><circle class="cls-2" cx="410.56" cy="178.42" r="2.06"/><circle class="cls-2" cx="426.52" cy="165.41" r="4.31"/><circle class="cls-2" cx="96.29" cy="221.88" r="2.06"/><circle class="cls-2" cx="136.21" cy="285.1" r="2.06"/><circle class="cls-2" cx="355.21" cy="179.1" r="2.06"/><circle class="cls-2" cx="242.29" cy="156.88" r="2.06"/><circle class="cls-2" cx="45.47" cy="280.88" r="4.31"/><circle class="cls-2" cx="53.18" cy="240.78" r="2.06"/><circle class="cls-2" cx="62.18" cy="141.78" r="4.31"/><circle class="cls-2" cx="62.18" cy="303.78" r="2.06"/></svg>